<svg width="396" height="252" viewBox="0 0 396 252" fill="none" xmlns="http://www.w3.org/2000/svg">
<g clip-path="url(#clip0)">
<path d="M1 0H0V1H1V0Z" fill="white"/>
<path d="M396 0H0V252H396V0Z" fill="white" stroke="white" stroke-width="1.07"/>
<path d="M8.22 231.24H390.52Z" fill="black"/>
<path d="M8.22 231.24H390.52" stroke="#D8DEE9" stroke-width="0.53"/>
<path d="M93.9308 240.99V239.481H96.8956V240.99H93.9308ZM101.305 243.09H99.796V237.402C99.2446 237.918 98.5947 238.299 97.8463 238.546V237.176C98.2402 237.047 98.6681 236.804 99.13 236.446C99.5919 236.084 99.9088 235.664 100.081 235.184H101.305V243.09ZM103.889 243.09V241.581H105.398V243.09H103.889ZM106.66 241.269L108.121 241.108C108.157 241.405 108.25 241.625 108.401 241.769C108.551 241.912 108.75 241.984 108.997 241.984C109.308 241.984 109.573 241.84 109.792 241.554C110.01 241.267 110.15 240.673 110.211 239.771C109.831 240.211 109.357 240.431 108.787 240.431C108.168 240.431 107.632 240.193 107.181 239.717C106.734 239.237 106.51 238.614 106.51 237.848C106.51 237.049 106.746 236.407 107.219 235.92C107.695 235.429 108.3 235.184 109.034 235.184C109.833 235.184 110.488 235.493 111 236.113C111.512 236.729 111.768 237.744 111.768 239.158C111.768 240.598 111.501 241.636 110.968 242.274C110.434 242.911 109.74 243.23 108.884 243.23C108.268 243.23 107.77 243.067 107.391 242.741C107.011 242.411 106.768 241.921 106.66 241.269ZM110.076 237.971C110.076 237.484 109.964 237.107 109.738 236.838C109.516 236.569 109.258 236.435 108.964 236.435C108.685 236.435 108.452 236.546 108.266 236.768C108.084 236.987 107.992 237.346 107.992 237.848C107.992 238.356 108.093 238.73 108.293 238.97C108.494 239.207 108.744 239.325 109.045 239.325C109.335 239.325 109.579 239.21 109.776 238.981C109.976 238.752 110.076 238.415 110.076 237.971ZM117.864 237.144L116.403 237.305C116.368 237.005 116.275 236.783 116.124 236.639C115.974 236.496 115.779 236.424 115.539 236.424C115.22 236.424 114.95 236.568 114.728 236.854C114.509 237.141 114.371 237.737 114.314 238.643C114.69 238.199 115.157 237.977 115.716 237.977C116.346 237.977 116.885 238.217 117.333 238.696C117.784 239.176 118.009 239.796 118.009 240.555C118.009 241.36 117.773 242.007 117.3 242.494C116.828 242.981 116.221 243.224 115.48 243.224C114.685 243.224 114.031 242.916 113.519 242.3C113.007 241.681 112.751 240.668 112.751 239.26C112.751 237.817 113.018 236.777 113.551 236.14C114.085 235.502 114.778 235.184 115.63 235.184C116.228 235.184 116.722 235.352 117.112 235.689C117.506 236.022 117.757 236.507 117.864 237.144ZM114.443 240.437C114.443 240.927 114.556 241.307 114.781 241.575C115.007 241.84 115.265 241.973 115.555 241.973C115.834 241.973 116.067 241.864 116.253 241.645C116.439 241.427 116.532 241.069 116.532 240.571C116.532 240.059 116.432 239.685 116.232 239.448C116.031 239.208 115.78 239.089 115.48 239.089C115.19 239.089 114.944 239.203 114.744 239.432C114.543 239.658 114.443 239.993 114.443 240.437Z" fill="#3B4252"/>
<path d="M196.765 239.187C196.765 238.256 196.86 237.507 197.05 236.942C197.243 236.372 197.528 235.934 197.904 235.626C198.283 235.318 198.759 235.164 199.332 235.164C199.755 235.164 200.126 235.25 200.444 235.422C200.763 235.59 201.026 235.835 201.234 236.157C201.441 236.476 201.604 236.866 201.723 237.328C201.841 237.787 201.9 238.406 201.9 239.187C201.9 240.111 201.805 240.857 201.615 241.426C201.425 241.992 201.141 242.431 200.761 242.742C200.385 243.05 199.909 243.204 199.332 243.204C198.573 243.204 197.977 242.932 197.544 242.388C197.025 241.733 196.765 240.666 196.765 239.187ZM197.759 239.187C197.759 240.479 197.909 241.341 198.21 241.77C198.514 242.196 198.888 242.409 199.332 242.409C199.776 242.409 200.149 242.195 200.45 241.765C200.754 241.335 200.906 240.476 200.906 239.187C200.906 237.89 200.754 237.029 200.45 236.603C200.149 236.177 199.773 235.964 199.322 235.964C198.878 235.964 198.523 236.152 198.258 236.528C197.925 237.008 197.759 237.894 197.759 239.187Z" fill="#3B4252"/>
<path d="M272.334 243.09H270.824V237.402C270.273 237.918 269.623 238.299 268.875 238.546V237.176C269.269 237.047 269.697 236.804 270.158 236.446C270.62 236.084 270.937 235.664 271.109 235.184H272.334V243.09ZM274.917 243.09V241.581H276.427V243.09H274.917ZM282.77 237.144L281.309 237.305C281.273 237.005 281.18 236.783 281.03 236.639C280.879 236.496 280.684 236.424 280.444 236.424C280.125 236.424 279.855 236.568 279.633 236.854C279.415 237.141 279.277 237.737 279.22 238.643C279.595 238.199 280.063 237.977 280.621 237.977C281.252 237.977 281.79 238.217 282.238 238.696C282.689 239.176 282.915 239.796 282.915 240.555C282.915 241.36 282.678 242.007 282.206 242.494C281.733 242.981 281.126 243.224 280.385 243.224C279.59 243.224 278.937 242.916 278.425 242.3C277.913 241.681 277.657 240.668 277.657 239.26C277.657 237.817 277.923 236.777 278.457 236.14C278.99 235.502 279.683 235.184 280.535 235.184C281.133 235.184 281.628 235.352 282.018 235.689C282.412 236.022 282.662 236.507 282.77 237.144ZM279.348 240.437C279.348 240.927 279.461 241.307 279.687 241.575C279.912 241.84 280.17 241.973 280.46 241.973C280.74 241.973 280.972 241.864 281.158 241.645C281.345 241.427 281.438 241.069 281.438 240.571C281.438 240.059 281.338 239.685 281.137 239.448C280.936 239.208 280.686 239.089 280.385 239.089C280.095 239.089 279.85 239.203 279.649 239.432C279.449 239.658 279.348 239.993 279.348 240.437ZM288.893 237.144L287.432 237.305C287.396 237.005 287.303 236.783 287.153 236.639C287.002 236.496 286.807 236.424 286.567 236.424C286.248 236.424 285.978 236.568 285.756 236.854C285.538 237.141 285.4 237.737 285.343 238.643C285.719 238.199 286.186 237.977 286.744 237.977C287.375 237.977 287.914 238.217 288.361 238.696C288.812 239.176 289.038 239.796 289.038 240.555C289.038 241.36 288.802 242.007 288.329 242.494C287.856 242.981 287.249 243.224 286.508 243.224C285.713 243.224 285.06 242.916 284.548 242.3C284.036 241.681 283.78 240.668 283.78 239.26C283.78 237.817 284.046 236.777 284.58 236.14C285.113 235.502 285.806 235.184 286.658 235.184C287.256 235.184 287.751 235.352 288.141 235.689C288.535 236.022 288.785 236.507 288.893 237.144ZM285.471 240.437C285.471 240.927 285.584 241.307 285.81 241.575C286.035 241.84 286.293 241.973 286.583 241.973C286.863 241.973 287.095 241.864 287.282 241.645C287.468 241.427 287.561 241.069 287.561 240.571C287.561 240.059 287.461 239.685 287.26 239.448C287.06 239.208 286.809 239.089 286.508 239.089C286.218 239.089 285.973 239.203 285.772 239.432C285.572 239.658 285.471 239.993 285.471 240.437Z" fill="#3B4252"/>
<path d="M370.722 242.205L370.862 243.059C370.59 243.117 370.346 243.145 370.131 243.145C369.78 243.145 369.508 243.09 369.315 242.979C369.122 242.868 368.985 242.723 368.907 242.544C368.828 242.361 368.789 241.98 368.789 241.4V238.118H368.08V237.366H368.789V235.953L369.75 235.373V237.366H370.722V238.118H369.75V241.453C369.75 241.729 369.766 241.906 369.798 241.985C369.834 242.064 369.89 242.126 369.965 242.173C370.044 242.22 370.155 242.243 370.298 242.243C370.405 242.243 370.547 242.23 370.722 242.205ZM373.52 245.385C372.987 244.712 372.536 243.924 372.167 243.022C371.798 242.119 371.614 241.185 371.614 240.218C371.614 239.366 371.752 238.549 372.027 237.769C372.35 236.863 372.847 235.96 373.52 235.062H374.213C373.78 235.806 373.494 236.338 373.354 236.657C373.136 237.151 372.964 237.667 372.838 238.204C372.684 238.873 372.607 239.547 372.607 240.223C372.607 241.946 373.143 243.666 374.213 245.385H373.52ZM375.212 241.249L376.142 241.163C376.22 241.6 376.371 241.917 376.593 242.114C376.815 242.311 377.099 242.409 377.447 242.409C377.744 242.409 378.004 242.341 378.226 242.205C378.451 242.069 378.636 241.888 378.779 241.663C378.922 241.434 379.042 241.126 379.139 240.739C379.235 240.352 379.284 239.958 379.284 239.557C379.284 239.514 379.282 239.45 379.278 239.364C379.085 239.672 378.82 239.923 378.483 240.116C378.15 240.306 377.789 240.401 377.398 240.401C376.747 240.401 376.195 240.164 375.744 239.692C375.293 239.219 375.067 238.596 375.067 237.822C375.067 237.024 375.302 236.381 375.771 235.894C376.244 235.407 376.834 235.164 377.543 235.164C378.055 235.164 378.523 235.302 378.945 235.577C379.371 235.853 379.694 236.247 379.912 236.759C380.134 237.267 380.245 238.005 380.245 238.972C380.245 239.978 380.136 240.78 379.917 241.378C379.699 241.973 379.373 242.425 378.94 242.737C378.51 243.049 378.005 243.204 377.425 243.204C376.809 243.204 376.306 243.034 375.916 242.694C375.526 242.35 375.291 241.869 375.212 241.249ZM379.171 237.774C379.171 237.219 379.022 236.779 378.725 236.453C378.431 236.127 378.077 235.964 377.662 235.964C377.232 235.964 376.858 236.14 376.539 236.49C376.22 236.841 376.061 237.296 376.061 237.855C376.061 238.356 376.211 238.764 376.512 239.079C376.817 239.391 377.191 239.547 377.635 239.547C378.082 239.547 378.449 239.391 378.736 239.079C379.026 238.764 379.171 238.329 379.171 237.774ZM381.335 241.249L382.265 241.163C382.343 241.6 382.494 241.917 382.716 242.114C382.938 242.311 383.222 242.409 383.57 242.409C383.867 242.409 384.127 242.341 384.349 242.205C384.574 242.069 384.759 241.888 384.902 241.663C385.045 241.434 385.165 241.126 385.262 240.739C385.358 240.352 385.407 239.958 385.407 239.557C385.407 239.514 385.405 239.45 385.401 239.364C385.208 239.672 384.943 239.923 384.606 240.116C384.273 240.306 383.912 240.401 383.521 240.401C382.87 240.401 382.318 240.164 381.867 239.692C381.416 239.219 381.19 238.596 381.19 237.822C381.19 237.024 381.425 236.381 381.894 235.894C382.367 235.407 382.957 235.164 383.666 235.164C384.179 235.164 384.646 235.302 385.068 235.577C385.494 235.853 385.817 236.247 386.035 236.759C386.257 237.267 386.368 238.005 386.368 238.972C386.368 239.978 386.259 240.78 386.04 241.378C385.822 241.973 385.496 242.425 385.063 242.737C384.633 243.049 384.128 243.204 383.548 243.204C382.932 243.204 382.429 243.034 382.039 242.694C381.649 242.35 381.414 241.869 381.335 241.249ZM385.294 237.774C385.294 237.219 385.145 236.779 384.848 236.453C384.554 236.127 384.2 235.964 383.785 235.964C383.355 235.964 382.981 236.14 382.662 236.49C382.343 236.841 382.184 237.296 382.184 237.855C382.184 238.356 382.334 238.764 382.635 239.079C382.94 239.391 383.314 239.547 383.758 239.547C384.205 239.547 384.572 239.391 384.859 239.079C385.149 238.764 385.294 238.329 385.294 237.774ZM388.216 245.385H387.523C388.594 243.666 389.129 241.946 389.129 240.223C389.129 239.55 389.052 238.882 388.898 238.22C388.776 237.683 388.606 237.167 388.388 236.673C388.248 236.351 387.96 235.814 387.523 235.062H388.216C388.889 235.96 389.387 236.863 389.709 237.769C389.985 238.549 390.123 239.366 390.123 240.218C390.123 241.185 389.936 242.119 389.564 243.022C389.195 243.924 388.746 244.712 388.216 245.385Z" fill="#3B4252"/>
<path d="M390.52 0H8.22V231.24H390.52V0Z" fill="white"/>
<path d="M8.22 231.13L8.98 231.12L9.75 231.11H10.51L11.28 231.1L12.04 231.09L12.81 231.08L13.57 231.07L14.34 231.06L15.1 231.05L15.87 231.04L16.63 231.03L17.39 231.02L18.16 231.01L18.92 230.99L19.69 230.98L20.45 230.97L21.22 230.95L21.98 230.93L22.75 230.92L23.51 230.9L24.28 230.88L25.04 230.86L25.81 230.84L26.57 230.82L27.33 230.8L28.1 230.78L28.86 230.75L29.63 230.73L30.39 230.7L31.16 230.67L31.92 230.64L32.69 230.61L33.45 230.58L34.22 230.54L34.98 230.51L35.74 230.47L36.51 230.43L37.27 230.39L38.04 230.35L38.8 230.3L39.57 230.26L40.33 230.21L41.1 230.15L41.86 230.1L42.63 230.05L43.39 229.99L44.16 229.93L44.92 229.86L45.68 229.8L46.45 229.73L47.21 229.65L47.98 229.58L48.74 229.5L49.51 229.42L50.27 229.33L51.04 229.24L51.8 229.15L52.57 229.05L53.33 228.95L54.1 228.84L54.86 228.73L55.62 228.62L56.39 228.5L57.15 228.37L57.92 228.24L58.68 228.11L59.45 227.97L60.21 227.82L60.98 227.67L61.74 227.52L62.51 227.35L63.27 227.18L64.04 227.01L64.8 226.83L65.56 226.64L66.33 226.44L67.09 226.24L67.86 226.02L68.62 225.8L69.39 225.58L70.15 225.34L70.92 225.1L71.68 224.84L72.45 224.58L73.21 224.31L73.98 224.03L74.74 223.74L75.5 223.43L76.27 223.12L77.03 222.8L77.8 222.47L78.56 222.12L79.33 221.77L80.09 221.4L80.86 221.02L81.62 220.63L82.39 220.22L83.15 219.81L83.91 219.38L84.68 218.93L85.44 218.47L86.21 218L86.97 217.51L87.74 217.01L88.5 216.5L89.27 215.96L90.03 215.42L90.8 214.85L91.56 214.27L92.33 213.67L93.09 213.06L93.85 212.43L94.62 211.78L95.38 211.11L96.15 210.43L96.91 209.73L97.68 209L98.44 208.26L99.21 207.5L99.97 206.72L100.74 205.92L101.5 205.1L102.27 204.26L103.03 203.4L103.79 202.52L104.56 201.62L105.32 200.69L106.09 199.75L106.85 198.78L107.62 197.79L108.38 196.78L109.15 195.74L109.91 194.69L110.68 193.61L111.44 192.51L112.21 191.38L112.97 190.23L113.73 189.06L114.5 187.87L115.26 186.65L116.03 185.41L116.79 184.14L117.56 182.85L118.32 181.54L119.09 180.2L119.85 178.84L120.62 177.46L121.38 176.06L122.14 174.63L122.91 173.17L123.67 171.7L124.44 170.2L125.2 168.68L125.97 167.14L126.73 165.57L127.5 163.98L128.26 162.38L129.03 160.75L129.79 159.09L130.56 157.42L131.32 155.73L132.08 154.02L132.85 152.28L133.61 150.53L134.38 148.76L135.14 146.97L135.91 145.17L136.67 143.34L137.44 141.5L138.2 139.65L138.97 137.77L139.73 135.89L140.5 133.99L141.26 132.07L142.02 130.15L142.79 128.21L143.55 126.26L144.32 124.3L145.08 122.33L145.85 120.35L146.61 118.37L147.38 116.37L148.14 114.37L148.91 112.37L149.67 110.36L150.44 108.35L151.2 106.34L151.96 104.32L152.73 102.31L153.49 100.29L154.26 98.28L155.02 96.27L155.79 94.27L156.55 92.27L157.32 90.28L158.08 88.29L158.85 86.31L159.61 84.35L160.38 82.39L161.14 80.45L161.9 78.52L162.67 76.6L163.43 74.7L164.2 72.82L164.96 70.95L165.73 69.11L166.49 67.28L167.26 65.48L168.02 63.7L168.79 61.94L169.55 60.21L170.31 58.51L171.08 56.83L171.84 55.18L172.61 53.56L173.37 51.98L174.14 50.42L174.9 48.9L175.67 47.41L176.43 45.96L177.2 44.55L177.96 43.17L178.73 41.83L179.49 40.53L180.25 39.27L181.02 38.05L181.78 36.87L182.55 35.74L183.31 34.65L184.08 33.61L184.84 32.61L185.61 31.66L186.37 30.75L187.14 29.9L187.9 29.09L188.67 28.33L189.43 27.62L190.19 26.96L190.96 26.35L191.72 25.8L192.49 25.29L193.25 24.84L194.02 24.44L194.78 24.09L195.55 23.8L196.31 23.55L197.08 23.37L197.84 23.23L198.61 23.15L199.37 23.12L200.13 23.15L200.9 23.23L201.66 23.37L202.43 23.55L203.19 23.8L203.96 24.09L204.72 24.44L205.49 24.84L206.25 25.29L207.02 25.8L207.78 26.35L208.55 26.96L209.31 27.62L210.07 28.33L210.84 29.09L211.6 29.9L212.37 30.75L213.13 31.66L213.9 32.61L214.66 33.61L215.43 34.65L216.19 35.74L216.96 36.87L217.72 38.05L218.48 39.27L219.25 40.53L220.01 41.83L220.78 43.17L221.54 44.55L222.31 45.96L223.07 47.41L223.84 48.9L224.6 50.42L225.37 51.98L226.13 53.56L226.9 55.18L227.66 56.83L228.42 58.51L229.19 60.21L229.95 61.94L230.72 63.7L231.48 65.48L232.25 67.28L233.01 69.11L233.78 70.95L234.54 72.82L235.31 74.7L236.07 76.6L236.84 78.52L237.6 80.45L238.36 82.39L239.13 84.35L239.89 86.31L240.66 88.29L241.42 90.28L242.19 92.27L242.95 94.27L243.72 96.27L244.48 98.28L245.25 100.29L246.01 102.31L246.78 104.32L247.54 106.34L248.3 108.35L249.07 110.36L249.83 112.37L250.6 114.37L251.36 116.37L252.13 118.37L252.89 120.35L253.66 122.33L254.42 124.3L255.19 126.26L255.95 128.21L256.72 130.15L257.48 132.07L258.24 133.99L259.01 135.89L259.77 137.77L260.54 139.65L261.3 141.5L262.07 143.34L262.83 145.17L263.6 146.97L264.36 148.76L265.13 150.53L265.89 152.28L266.65 154.02L267.42 155.73L268.18 157.42L268.95 159.09L269.71 160.75L270.48 162.38L271.24 163.98L272.01 165.57L272.77 167.14L273.54 168.68L274.3 170.2L275.07 171.7L275.83 173.17L276.59 174.63L277.36 176.06L278.12 177.46L278.51 178.15V231.24H278.12H277.36H276.59H275.83H275.07H274.3H273.54H272.77H272.01H271.24H270.48H269.71H268.95H268.18H267.42H266.65H265.89H265.13H264.36H263.6H262.83H262.07H261.3H260.54H259.77H259.01H258.24H257.48H256.72H255.95H255.19H254.42H253.66H252.89H252.13H251.36H250.6H249.83H249.07H248.3H247.54H246.78H246.01H245.25H244.48H243.72H242.95H242.19H241.42H240.66H239.89H239.13H238.36H237.6H236.84H236.07H235.31H234.54H233.78H233.01H232.25H231.48H230.72H229.95H229.19H228.42H227.66H226.9H226.13H225.37H224.6H223.84H223.07H222.31H221.54H220.78H220.01H219.25H218.48H217.72H216.96H216.19H215.43H214.66H213.9H213.13H212.37H211.6H210.84H210.07H209.31H208.55H207.78H207.02H206.25H205.49H204.72H203.96H203.19H202.43H201.66H200.9H200.13H199.37H198.61H197.84H197.08H196.31H195.55H194.78H194.02H193.25H192.49H191.72H190.96H190.19H189.43H188.67H187.9H187.14H186.37H185.61H184.84H184.08H183.31H182.55H181.78H181.02H180.25H179.49H178.73H177.96H177.2H176.43H175.67H174.9H174.14H173.37H172.61H171.84H171.08H170.31H169.55H168.79H168.02H167.26H166.49H165.73H164.96H164.2H163.43H162.67H161.9H161.14H160.38H159.61H158.85H158.08H157.32H156.55H155.79H155.02H154.26H153.49H152.73H151.96H151.2H150.44H149.67H148.91H148.14H147.38H146.61H145.85H145.08H144.32H143.55H142.79H142.02H141.26H140.5H139.73H138.97H138.2H137.44H136.67H135.91H135.14H134.38H133.61H132.85H132.08H131.32H130.56H129.79H129.03H128.26H127.5H126.73H125.97H125.2H124.44H123.67H122.91H122.14H121.38H120.62H119.85H119.09H118.32H117.56H116.79H116.03H115.26H114.5H113.73H112.97H112.21H111.44H110.68H109.91H109.15H108.38H107.62H106.85H106.09H105.32H104.56H103.79H103.03H102.27H101.5H100.74H99.97H99.21H98.44H97.68H96.91H96.15H95.38H94.62H93.85H93.09H92.33H91.56H90.8H90.03H89.27H88.5H87.74H86.97H86.21H85.44H84.68H83.91H83.15H82.39H81.62H80.86H80.09H79.33H78.56H77.8H77.03H76.27H75.5H74.74H73.98H73.21H72.45H71.68H70.92H70.15H69.39H68.62H67.86H67.09H66.33H65.56H64.8H64.04H63.27H62.51H61.74H60.98H60.21H59.45H58.68H57.92H57.15H56.39H55.62H54.86H54.1H53.33H52.57H51.8H51.04H50.27H49.51H48.74H47.98H47.21H46.45H45.68H44.92H44.16H43.39H42.63H41.86H41.1H40.33H39.57H38.8H38.04H37.27H36.51H35.74H34.98H34.22H33.45H32.69H31.92H31.16H30.39H29.63H28.86H28.1H27.33H26.57H25.81H25.04H24.28H23.51H22.75H21.98H21.22H20.45H19.69H18.92H18.16H17.39H16.63H15.87H15.1H14.34H13.57H12.81H12.04H11.28H10.51H9.75H8.98H8.22V231.13Z" fill="#ECEFF4"/>
<path d="M278.51 178.15L278.89 178.84L279.65 180.2L280.42 181.54L281.18 182.85L281.95 184.14L282.71 185.41L283.48 186.65L284.24 187.87L285.01 189.06L285.77 190.23L286.53 191.38L287.3 192.51L288.06 193.61L288.83 194.69L289.59 195.74L290.36 196.78L291.12 197.79L291.89 198.78L292.65 199.75L293.42 200.69L294.18 201.62L294.95 202.52L295.71 203.4L296.47 204.26L297.24 205.1L298 205.92L298.77 206.72L299.53 207.5L300.3 208.26L301.06 209L301.83 209.73L302.59 210.43L303.36 211.11L304.12 211.78L304.89 212.43L305.65 213.06L306.41 213.67L307.18 214.27L307.94 214.85L308.71 215.42L309.47 215.96L310.24 216.5L311 217.01L311.77 217.51L312.53 218L313.3 218.47L314.06 218.93L314.82 219.38L315.59 219.81L316.35 220.22L317.12 220.63L317.88 221.02L318.65 221.4L319.41 221.77L320.18 222.12L320.94 222.47L321.71 222.8L322.47 223.12L323.24 223.43L324 223.74L324.76 224.03L325.53 224.31L326.29 224.58L327.06 224.84L327.82 225.1L328.59 225.34L329.35 225.58L330.12 225.8L330.88 226.02L331.65 226.24L332.41 226.44L333.18 226.64L333.94 226.83L334.7 227.01L335.47 227.18L336.23 227.35L337 227.52L337.76 227.67L338.53 227.82L339.29 227.97L340.06 228.11L340.82 228.24L341.59 228.37L342.35 228.5L343.12 228.62L343.88 228.73L344.64 228.84L345.41 228.95L346.17 229.05L346.94 229.15L347.7 229.24L348.47 229.33L349.23 229.42L350 229.5L350.76 229.58L351.53 229.65L352.29 229.73L353.06 229.8L353.82 229.86L354.58 229.93L355.35 229.99L356.11 230.05L356.88 230.1L357.64 230.15L358.41 230.21L359.17 230.26L359.94 230.3L360.7 230.35L361.47 230.39L362.23 230.43L362.99 230.47L363.76 230.51L364.52 230.54L365.29 230.58L366.05 230.61L366.82 230.64L367.58 230.67L368.35 230.7L369.11 230.73L369.88 230.75L370.64 230.78L371.41 230.8L372.17 230.82L372.93 230.84L373.7 230.86L374.46 230.88L375.23 230.9L375.99 230.92L376.76 230.93L377.52 230.95L378.29 230.97L379.05 230.98L379.82 230.99L380.58 231.01L381.35 231.02L382.11 231.03L382.87 231.04L383.64 231.05L384.4 231.06L385.17 231.07L385.93 231.08L386.7 231.09L387.46 231.1L388.23 231.11H388.99L389.76 231.12L390.52 231.13V231.24H389.76H388.99H388.23H387.46H386.7H385.93H385.17H384.4H383.64H382.87H382.11H381.35H380.58H379.82H379.05H378.29H377.52H376.76H375.99H375.23H374.46H373.7H372.93H372.17H371.41H370.64H369.88H369.11H368.35H367.58H366.82H366.05H365.29H364.52H363.76H362.99H362.23H361.47H360.7H359.94H359.17H358.41H357.64H356.88H356.11H355.35H354.58H353.82H353.06H352.29H351.53H350.76H350H349.23H348.47H347.7H346.94H346.17H345.41H344.64H343.88H343.12H342.35H341.59H340.82H340.06H339.29H338.53H337.76H337H336.23H335.47H334.7H333.94H333.18H332.41H331.65H330.88H330.12H329.35H328.59H327.82H327.06H326.29H325.53H324.76H324H323.24H322.47H321.71H320.94H320.18H319.41H318.65H317.88H317.12H316.35H315.59H314.82H314.06H313.3H312.53H311.77H311H310.24H309.47H308.71H307.94H307.18H306.41H305.65H304.89H304.12H303.36H302.59H301.83H301.06H300.3H299.53H298.77H298H297.24H296.47H295.71H294.95H294.18H293.42H292.65H291.89H291.12H290.36H289.59H288.83H288.06H287.3H286.53H285.77H285.01H284.24H283.48H282.71H281.95H281.18H280.42H279.65H278.89H278.51V178.15Z" fill="#81A1C1"/>
<path d="M199.37 231.24V23.12" stroke="#D8DEE9" stroke-width="1.07" stroke-dasharray="9.96 4.27"/>
<path d="M105.86 231.24V200.03" stroke="#D8DEE9" stroke-width="1.07" stroke-dasharray="9.96 4.27"/>
<path d="M8.22 231.13L8.98 231.12L9.75 231.11H10.51L11.28 231.1L12.04 231.09L12.81 231.08L13.57 231.07L14.34 231.06L15.1 231.05L15.87 231.04L16.63 231.03L17.39 231.02L18.16 231.01L18.92 230.99L19.69 230.98L20.45 230.97L21.22 230.95L21.98 230.93L22.75 230.92L23.51 230.9L24.28 230.88L25.04 230.86L25.81 230.84L26.57 230.82L27.33 230.8L28.1 230.78L28.86 230.75L29.63 230.73L30.39 230.7L31.16 230.67L31.92 230.64L32.69 230.61L33.45 230.58L34.22 230.54L34.98 230.51L35.74 230.47L36.51 230.43L37.27 230.39L38.04 230.35L38.8 230.3L39.57 230.26L40.33 230.21L41.1 230.15L41.86 230.1L42.63 230.05L43.39 229.99L44.16 229.93L44.92 229.86L45.68 229.8L46.45 229.73L47.21 229.65L47.98 229.58L48.74 229.5L49.51 229.42L50.27 229.33L51.04 229.24L51.8 229.15L52.57 229.05L53.33 228.95L54.1 228.84L54.86 228.73L55.62 228.62L56.39 228.5L57.15 228.37L57.92 228.24L58.68 228.11L59.45 227.97L60.21 227.82L60.98 227.67L61.74 227.52L62.51 227.35L63.27 227.18L64.04 227.01L64.8 226.83L65.56 226.64L66.33 226.44L67.09 226.24L67.86 226.02L68.62 225.8L69.39 225.58L70.15 225.34L70.92 225.1L71.68 224.84L72.45 224.58L73.21 224.31L73.98 224.03L74.74 223.74L75.5 223.43L76.27 223.12L77.03 222.8L77.8 222.47L78.56 222.12L79.33 221.77L80.09 221.4L80.86 221.02L81.62 220.63L82.39 220.22L83.15 219.81L83.91 219.38L84.68 218.93L85.44 218.47L86.21 218L86.97 217.51L87.74 217.01L88.5 216.5L89.27 215.96L90.03 215.42L90.8 214.85L91.56 214.27L92.33 213.67L93.09 213.06L93.85 212.43L94.62 211.78L95.38 211.11L96.15 210.43L96.91 209.73L97.68 209L98.44 208.26L99.21 207.5L99.97 206.72L100.74 205.92L101.5 205.1L102.27 204.26L103.03 203.4L103.79 202.52L104.56 201.62L105.32 200.69L106.09 199.75L106.85 198.78L107.62 197.79L108.38 196.78L109.15 195.74L109.91 194.69L110.68 193.61L111.44 192.51L112.21 191.38L112.97 190.23L113.73 189.06L114.5 187.87L115.26 186.65L116.03 185.41L116.79 184.14L117.56 182.85L118.32 181.54L119.09 180.2L119.85 178.84L120.62 177.46L121.38 176.06L122.14 174.63L122.91 173.17L123.67 171.7L124.44 170.2L125.2 168.68L125.97 167.14L126.73 165.57L127.5 163.98L128.26 162.38L129.03 160.75L129.79 159.09L130.56 157.42L131.32 155.73L132.08 154.02L132.85 152.28L133.61 150.53L134.38 148.76L135.14 146.97L135.91 145.17L136.67 143.34L137.44 141.5L138.2 139.65L138.97 137.77L139.73 135.89L140.5 133.99L141.26 132.07L142.02 130.15L142.79 128.21L143.55 126.26L144.32 124.3L145.08 122.33L145.85 120.35L146.61 118.37L147.38 116.37L148.14 114.37L148.91 112.37L149.67 110.36L150.44 108.35L151.2 106.34L151.96 104.32L152.73 102.31L153.49 100.29L154.26 98.28L155.02 96.27L155.79 94.27L156.55 92.27L157.32 90.28L158.08 88.29L158.85 86.31L159.61 84.35L160.38 82.39L161.14 80.45L161.9 78.52L162.67 76.6L163.43 74.7L164.2 72.82L164.96 70.95L165.73 69.11L166.49 67.28L167.26 65.48L168.02 63.7L168.79 61.94L169.55 60.21L170.31 58.51L171.08 56.83L171.84 55.18L172.61 53.56L173.37 51.98L174.14 50.42L174.9 48.9L175.67 47.41L176.43 45.96L177.2 44.55L177.96 43.17L178.73 41.83L179.49 40.53L180.25 39.27L181.02 38.05L181.78 36.87L182.55 35.74L183.31 34.65L184.08 33.61L184.84 32.61L185.61 31.66L186.37 30.75L187.14 29.9L187.9 29.09L188.67 28.33L189.43 27.62L190.19 26.96L190.96 26.35L191.72 25.8L192.49 25.29L193.25 24.84L194.02 24.44L194.78 24.09L195.55 23.8L196.31 23.55L197.08 23.37L197.84 23.23L198.61 23.15L199.37 23.12L200.13 23.15L200.9 23.23L201.66 23.37L202.43 23.55L203.19 23.8L203.96 24.09L204.72 24.44L205.49 24.84L206.25 25.29L207.02 25.8L207.78 26.35L208.55 26.96L209.31 27.62L210.07 28.33L210.84 29.09L211.6 29.9L212.37 30.75L213.13 31.66L213.9 32.61L214.66 33.61L215.43 34.65L216.19 35.74L216.96 36.87L217.72 38.05L218.48 39.27L219.25 40.53L220.01 41.83L220.78 43.17L221.54 44.55L222.31 45.96L223.07 47.41L223.84 48.9L224.6 50.42L225.37 51.98L226.13 53.56L226.9 55.18L227.66 56.83L228.42 58.51L229.19 60.21L229.95 61.94L230.72 63.7L231.48 65.48L232.25 67.28L233.01 69.11L233.78 70.95L234.54 72.82L235.31 74.7L236.07 76.6L236.84 78.52L237.6 80.45L238.36 82.39L239.13 84.35L239.89 86.31L240.66 88.29L241.42 90.28L242.19 92.27L242.95 94.27L243.72 96.27L244.48 98.28L245.25 100.29L246.01 102.31L246.78 104.32L247.54 106.34L248.3 108.35L249.07 110.36L249.83 112.37L250.6 114.37L251.36 116.37L252.13 118.37L252.89 120.35L253.66 122.33L254.42 124.3L255.19 126.26L255.95 128.21L256.72 130.15L257.48 132.07L258.24 133.99L259.01 135.89L259.77 137.77L260.54 139.65L261.3 141.5L262.07 143.34L262.83 145.17L263.6 146.97L264.36 148.76L265.13 150.53L265.89 152.28L266.65 154.02L267.42 155.73L268.18 157.42L268.95 159.09L269.71 160.75L270.48 162.38L271.24 163.98L272.01 165.57L272.77 167.14L273.54 168.68L274.3 170.2L275.07 171.7L275.83 173.17L276.59 174.63L277.36 176.06L278.12 177.46L278.89 178.84L279.65 180.2L280.42 181.54L281.18 182.85L281.95 184.14L282.71 185.41L283.48 186.65L284.24 187.87L285.01 189.06L285.77 190.23L286.53 191.38L287.3 192.51L288.06 193.61L288.83 194.69L289.59 195.74L290.36 196.78L291.12 197.79L291.89 198.78L292.65 199.75L293.42 200.69L294.18 201.62L294.95 202.52L295.71 203.4L296.47 204.26L297.24 205.1L298 205.92L298.77 206.72L299.53 207.5L300.3 208.26L301.06 209L301.83 209.73L302.59 210.43L303.36 211.11L304.12 211.78L304.89 212.43L305.65 213.06L306.41 213.67L307.18 214.27L307.94 214.85L308.71 215.42L309.47 215.96L310.24 216.5L311 217.01L311.77 217.51L312.53 218L313.3 218.47L314.06 218.93L314.82 219.38L315.59 219.81L316.35 220.22L317.12 220.63L317.88 221.02L318.65 221.4L319.41 221.77L320.18 222.12L320.94 222.47L321.71 222.8L322.47 223.12L323.24 223.43L324 223.74L324.76 224.03L325.53 224.31L326.29 224.58L327.06 224.84L327.82 225.1L328.59 225.34L329.35 225.58L330.12 225.8L330.88 226.02L331.65 226.24L332.41 226.44L333.18 226.64L333.94 226.83L334.7 227.01L335.47 227.18L336.23 227.35L337 227.52L337.76 227.67L338.53 227.82L339.29 227.97L340.06 228.11L340.82 228.24L341.59 228.37L342.35 228.5L343.12 228.62L343.88 228.73L344.64 228.84L345.41 228.95L346.17 229.05L346.94 229.15L347.7 229.24L348.47 229.33L349.23 229.42L350 229.5L350.76 229.58L351.53 229.65L352.29 229.73L353.06 229.8L353.82 229.86L354.58 229.93L355.35 229.99L356.11 230.05L356.88 230.1L357.64 230.15L358.41 230.21L359.17 230.26L359.94 230.3L360.7 230.35L361.47 230.39L362.23 230.43L362.99 230.47L363.76 230.51L364.52 230.54L365.29 230.58L366.05 230.61L366.82 230.64L367.58 230.67L368.35 230.7L369.11 230.73L369.88 230.75L370.64 230.78L371.41 230.8L372.17 230.82L372.93 230.84L373.7 230.86L374.46 230.88L375.23 230.9L375.99 230.92L376.76 230.93L377.52 230.95L378.29 230.97L379.05 230.98L379.82 230.99L380.58 231.01L381.35 231.02L382.11 231.03L382.87 231.04L383.64 231.05L384.4 231.06L385.17 231.07L385.93 231.08L386.7 231.09L387.46 231.1L388.23 231.11H388.99L389.76 231.12L390.52 231.13" stroke="#3B4252" stroke-width="2.13"/>
</g>
<defs>
<clipPath id="clip0">
<rect width="396" height="252" fill="white"/>
</clipPath>
</defs>
</svg>
